<svg width="80" height="60" viewBox="0 0 80 60" fill="none" xmlns="http://www.w3.org/2000/svg">
<path d="M32 0H80V60H32V0Z" fill="#FF0000"/>
<path d="M0 0H32V60H0V0Z" fill="#006600"/>
<path fill-rule="evenodd" clip-rule="evenodd" d="M42.4375 38.275C38.4 38.15 19.9375 26.625 19.8125 24.775L20.825 23.0875C22.6625 25.75 41.5375 36.9625 43.4 36.5625L42.4375 38.275Z" fill="#FFFF00" stroke="black" stroke-width="0.6" stroke-linecap="round" stroke-linejoin="round"/>
<path fill-rule="evenodd" clip-rule="evenodd" d="M20.6125 22.85C20.25 23.825 25.4375 27.025 31.6625 30.825C37.9 34.6125 43.275 36.95 43.6625 36.625L43.85 36.275C43.775 36.4 43.6 36.4375 43.3125 36.35C41.625 35.8625 37.2375 33.85 31.8 30.55C26.35 27.25 21.625 24.2125 20.8875 22.925C20.83 22.8043 20.8042 22.6709 20.8125 22.5375H20.7875L20.6375 22.8125L20.6125 22.85V22.85ZM42.525 38.325C42.4625 38.45 42.325 38.45 42.0875 38.425C40.5875 38.2625 36.0125 36.0375 30.6 32.8C24.3 29.025 19.1 25.6 19.675 24.7L19.825 24.425L19.85 24.4375C19.35 25.9625 30.1125 32.1125 30.75 32.5125C36.975 36.3625 42.225 38.625 42.6875 38.0375L42.525 38.325V38.325Z" fill="#FFFF00" stroke="black" stroke-width="0.6" stroke-linecap="round" stroke-linejoin="round"/>
<path fill-rule="evenodd" clip-rule="evenodd" d="M32.025 25.9C36.05 25.8625 41.025 25.35 43.9 24.2L43.275 23.2C41.5875 24.1375 36.5875 24.7625 31.9875 24.85C26.5625 24.8 22.725 24.2875 20.8 23L20.225 24.075C23.75 25.575 27.375 25.8875 32.025 25.9" fill="#FFFF00"/>
<path d="M32.025 25.9C36.05 25.8625 41.025 25.35 43.9 24.2L43.275 23.2C41.5875 24.1375 36.5875 24.7625 31.9875 24.85C26.5625 24.8 22.725 24.2875 20.8 23L20.225 24.075C23.75 25.575 27.375 25.8875 32.025 25.9" stroke="black" stroke-width="0.6" stroke-linecap="round" stroke-linejoin="round"/>
<path fill-rule="evenodd" clip-rule="evenodd" d="M44.0625 24.225C43.9625 24.3875 42.0875 25.025 39.3375 25.5C36.9133 25.8674 34.4644 26.0471 32.0125 26.0375C29.6634 26.0463 27.3163 25.896 24.9875 25.5875C22.1 25.1375 20.6125 24.5125 20.05 24.2875L20.1875 24.0125C21.775 24.6375 23.275 25.0125 25.025 25.2875C27.3368 25.5997 29.6672 25.7542 32 25.75C34.4392 25.7526 36.8751 25.5729 39.2875 25.2125C42.1 24.75 43.6375 24.1625 43.8625 23.9L44.0625 24.2375V24.225ZM43.5125 23.2125C43.2125 23.4625 41.6875 24 39.0125 24.425C36.7026 24.7592 34.3715 24.9263 32.0375 24.925C29.2875 24.925 27.025 24.725 25.3125 24.475C22.5875 24.125 21.1375 23.475 20.6125 23.3L20.775 23.025C21.1875 23.2375 22.575 23.8 25.3375 24.1875C27.5582 24.485 29.797 24.627 32.0375 24.6125C34.3549 24.6132 36.6693 24.4461 38.9625 24.1125C41.65 23.7375 43.1 23.0625 43.325 22.8875L43.5125 23.2125V23.2125ZM18.7875 30.75C21.2625 32.0875 26.775 32.75 31.9875 32.8C36.7375 32.8125 42.9125 32.075 45.225 30.85L45.1625 29.5125C44.4375 30.6375 37.8125 31.725 31.9375 31.6875C26.0625 31.6375 20.6 30.7375 18.775 29.5625V30.75" fill="#FFFF00"/>
<path d="M18.7875 30.75C21.2625 32.0875 26.775 32.75 31.9875 32.8C36.7375 32.8125 42.9125 32.075 45.225 30.85L45.1625 29.5125C44.4375 30.6375 37.8125 31.725 31.9375 31.6875C26.0625 31.6375 20.6 30.7375 18.775 29.5625V30.75M44.0625 24.225C43.9625 24.3875 42.0875 25.025 39.3375 25.5C36.9133 25.8674 34.4644 26.0471 32.0125 26.0375C29.6634 26.0463 27.3163 25.896 24.9875 25.5875C22.1 25.1375 20.6125 24.5125 20.05 24.2875L20.1875 24.0125C21.775 24.6375 23.275 25.0125 25.025 25.2875C27.3368 25.5997 29.6672 25.7542 32 25.75C34.4392 25.7526 36.8751 25.5729 39.2875 25.2125C42.1 24.75 43.6375 24.1625 43.8625 23.9L44.0625 24.2375V24.225ZM43.5125 23.2125C43.2125 23.4625 41.6875 24 39.0125 24.425C36.7026 24.7592 34.3715 24.9263 32.0375 24.925C29.2875 24.925 27.025 24.725 25.3125 24.475C22.5875 24.125 21.1375 23.475 20.6125 23.3L20.775 23.025C21.1875 23.2375 22.575 23.8 25.3375 24.1875C27.5582 24.485 29.797 24.627 32.0375 24.6125C34.3549 24.6132 36.6693 24.4461 38.9625 24.1125C41.65 23.7375 43.1 23.0625 43.325 22.8875L43.5125 23.2125V23.2125Z" stroke="black" stroke-width="0.6" stroke-linecap="round" stroke-linejoin="round"/>
<path fill-rule="evenodd" clip-rule="evenodd" d="M45.35 30.5625V30.875C45 31.3 42.825 31.925 40.1 32.375C37.3928 32.7642 34.66 32.948 31.925 32.925C29.3316 32.9471 26.7405 32.7674 24.175 32.3875C22.2607 32.1663 20.3901 31.6607 18.625 30.8875V30.525C19.8375 31.325 23.1125 31.925 24.2125 32.1C26.1875 32.4 28.725 32.625 31.925 32.625C35.2875 32.625 37.975 32.3875 40.05 32.075C42.0125 31.7875 44.8 31.05 45.35 30.5625V30.5625ZM45.35 29.4375V29.75C45 30.1625 42.825 30.7875 40.1 31.2375C37.3931 31.6308 34.6603 31.8189 31.925 31.8C29.3318 31.8153 26.7412 31.6356 24.175 31.2625C22.2607 31.0413 20.3901 30.5357 18.625 29.7625V29.3875C19.8375 30.2 23.125 30.7875 24.2125 30.9625C26.766 31.3366 29.3443 31.5162 31.925 31.5C35.2875 31.5 37.9875 31.25 40.05 30.9375C42.0125 30.6625 44.8 29.925 45.35 29.4375V29.4375ZM31.975 38.0375C26.275 38.0125 21.3875 36.4875 20.35 36.2375L21.1 37.4125C24.6061 38.6543 28.3059 39.2596 32.025 39.2C36.3625 39.075 40.15 38.7375 42.8125 37.4375L43.5875 36.2125C41.775 37.075 35.5875 38.0375 31.9625 38.0375" fill="#FFFF00"/>
<path d="M31.975 38.0375C26.275 38.0125 21.3875 36.4875 20.35 36.2375L21.1 37.4125C24.6061 38.6543 28.3059 39.2596 32.025 39.2C36.3625 39.075 40.15 38.7375 42.8125 37.4375L43.5875 36.2125C41.775 37.075 35.5875 38.0375 31.9625 38.0375M45.35 30.5625V30.875C45 31.3 42.825 31.925 40.1 32.375C37.3928 32.7642 34.66 32.948 31.925 32.925C29.3316 32.9471 26.7405 32.7674 24.175 32.3875C22.2607 32.1663 20.3901 31.6607 18.625 30.8875V30.525C19.8375 31.325 23.1125 31.925 24.2125 32.1C26.1875 32.4 28.725 32.625 31.925 32.625C35.2875 32.625 37.975 32.3875 40.05 32.075C42.0125 31.7875 44.8 31.05 45.35 30.5625V30.5625ZM45.35 29.4375V29.75C45 30.1625 42.825 30.7875 40.1 31.2375C37.3931 31.6308 34.6603 31.8189 31.925 31.8C29.3318 31.8153 26.7412 31.6356 24.175 31.2625C22.2607 31.0413 20.3901 30.5357 18.625 29.7625V29.3875C19.8375 30.2 23.125 30.7875 24.2125 30.9625C26.766 31.3366 29.3443 31.5162 31.925 31.5C35.2875 31.5 37.9875 31.25 40.05 30.9375C42.0125 30.6625 44.8 29.925 45.35 29.4375V29.4375Z" stroke="black" stroke-width="0.6" stroke-linecap="round" stroke-linejoin="round"/>
<path fill-rule="evenodd" clip-rule="evenodd" d="M43.1125 37.1625C42.9987 37.3312 42.882 37.4979 42.7625 37.6625C41.5125 38.1125 39.5125 38.5875 38.6875 38.7125C36.4737 39.125 34.2269 39.3342 31.975 39.3375C26.925 39.2625 22.7875 38.275 20.85 37.425L20.6875 37.1625L20.7125 37.1125L20.975 37.225C24.5325 38.4023 28.2528 39.0139 32 39.0375C34.35 39.0375 36.6875 38.775 38.575 38.4375C41.475 37.85 42.65 37.4125 43.0125 37.2125L43.1 37.1625H43.1125ZM43.775 36.0625C43.6927 36.2089 43.6094 36.3548 43.525 36.5C42.85 36.75 41.025 37.275 38.3625 37.65C36.6125 37.8875 35.525 38.125 32.0375 38.1875C28.0508 38.1475 24.0886 37.5586 20.2625 36.4375L20.125 36.125C24.0123 37.1994 28.0179 37.7872 32.05 37.875C35.2375 37.8125 36.6 37.575 38.3375 37.3375C41.4375 36.8625 43 36.3375 43.4625 36.2C43.4628 36.1917 43.4628 36.1833 43.4625 36.175L43.7875 36.05L43.775 36.0625Z" fill="#FFFF00" stroke="black" stroke-width="0.6" stroke-linecap="round" stroke-linejoin="round"/>
<path fill-rule="evenodd" clip-rule="evenodd" d="M43.85 29.7C43.8625 33.45 41.9375 36.825 40.4 38.3C38.1292 40.5147 35.0967 41.7761 31.925 41.825C28.1375 41.8875 24.575 39.425 23.6125 38.3375C21.4593 36.0541 20.2338 33.0505 20.175 29.9125C20.4 25.8125 22.0125 22.9625 24.3375 21C26.5961 19.1407 29.4373 18.1361 32.3625 18.1625C34.0702 18.2453 35.7417 18.6839 37.27 19.4502C38.7983 20.2165 40.1497 21.2936 41.2375 22.6125C42.8 24.5125 43.4875 26.575 43.85 29.7V29.7ZM31.95 16.875C35.4469 16.8749 38.802 18.2571 41.284 20.7204C43.766 23.1837 45.1737 26.5282 45.2 30.025C45.2 31.7601 44.8583 33.4782 44.1943 35.0812C43.5303 36.6842 42.5571 38.1408 41.3302 39.3676C40.1033 40.5945 38.6468 41.5678 37.0437 42.2318C35.4407 42.8957 33.7226 43.2375 31.9875 43.2375C30.2525 43.2375 28.5344 42.8957 26.9313 42.2318C25.3283 41.5678 23.8718 40.5945 22.6449 39.3676C21.418 38.1408 20.4448 36.6842 19.7808 35.0812C19.1168 33.4782 18.775 31.7601 18.775 30.025C18.7625 22.775 24.6875 16.875 31.95 16.875" fill="#FFFF00"/>
<path d="M31.95 16.875C35.4469 16.8749 38.802 18.2571 41.284 20.7204C43.766 23.1837 45.1737 26.5282 45.2 30.025C45.2 31.7601 44.8583 33.4782 44.1943 35.0812C43.5303 36.6842 42.5571 38.1408 41.3302 39.3676C40.1033 40.5945 38.6468 41.5678 37.0437 42.2318C35.4407 42.8957 33.7226 43.2375 31.9875 43.2375C30.2525 43.2375 28.5344 42.8957 26.9313 42.2318C25.3283 41.5678 23.8718 40.5945 22.6449 39.3676C21.418 38.1408 20.4448 36.6842 19.7808 35.0812C19.1168 33.4782 18.775 31.7601 18.775 30.025C18.7625 22.775 24.6875 16.875 31.95 16.875M43.85 29.7C43.8625 33.45 41.9375 36.825 40.4 38.3C38.1292 40.5147 35.0967 41.7761 31.925 41.825C28.1375 41.8875 24.575 39.425 23.6125 38.3375C21.4593 36.0541 20.2338 33.0505 20.175 29.9125C20.4 25.8125 22.0125 22.9625 24.3375 21C26.5961 19.1407 29.4373 18.1361 32.3625 18.1625C34.0702 18.2453 35.7417 18.6839 37.27 19.4502C38.7983 20.2165 40.1497 21.2936 41.2375 22.6125C42.8 24.5125 43.4875 26.575 43.85 29.7V29.7Z" stroke="black" stroke-width="0.6" stroke-linecap="round" stroke-linejoin="round"/>
<path fill-rule="evenodd" clip-rule="evenodd" d="M31.9875 16.8125C39.2625 16.8125 45.1875 22.7375 45.1875 30.0125C45.1875 37.2875 39.2625 43.2125 32 43.2125C24.7375 43.2125 18.8 37.2875 18.8 30.0125C18.8 22.7375 24.725 16.8125 32 16.8125H31.9875ZM19.0751 30C19.0751 37.1 24.9125 42.9125 31.9875 42.9125C39.0625 42.9125 44.9001 37.1 44.9001 30C44.9001 22.9 39.0625 17.0875 31.9875 17.0875C24.9125 17.0875 19.0751 22.9 19.0751 30Z" fill="#FFFF00" stroke="black" stroke-width="0.6" stroke-linecap="round" stroke-linejoin="round"/>
<path fill-rule="evenodd" clip-rule="evenodd" d="M32 17.9125C35.2027 17.9224 38.2715 19.1991 40.5362 21.4638C42.8009 23.7285 44.0776 26.7972 44.0875 30C44.0776 33.2039 42.8013 36.274 40.537 38.5407C38.2726 40.8074 35.2039 42.0868 32 42.1C25.375 42.1 19.9125 36.65 19.9125 30C19.9256 26.7983 21.2034 23.7314 23.4674 21.4674C25.7314 19.2034 28.7982 17.9257 32 17.9125V17.9125ZM20.2 30C20.2 36.5 25.525 41.8 32 41.8C38.475 41.8 43.8 36.4875 43.8 30C43.8 23.5 38.475 18.2 32 18.2C28.8745 18.2132 25.8807 19.4606 23.6707 21.6707C21.4606 23.8808 20.2131 26.8745 20.2 30V30Z" fill="#FFFF00" stroke="black" stroke-width="0.6" stroke-linecap="round" stroke-linejoin="round"/>
<path fill-rule="evenodd" clip-rule="evenodd" d="M32.5375 16.75H31.4V43.2875H32.525L32.5375 16.75Z" fill="#FFFF00" stroke="black" stroke-width="0.6" stroke-linecap="round" stroke-linejoin="round"/>
<path fill-rule="evenodd" clip-rule="evenodd" d="M32.4125 16.6H32.7V43.4375H32.425V16.6H32.4125ZM31.2875 16.6H31.5875V43.4375H31.3V16.6H31.2875Z" fill="#FFFF00" stroke="black" stroke-width="0.6" stroke-linecap="round" stroke-linejoin="round"/>
<path fill-rule="evenodd" clip-rule="evenodd" d="M45.2001 30.525V29.55L44.4001 28.8L39.8625 27.6L33.3376 26.9375L25.4625 27.3375L19.8625 28.6625L18.7375 29.5V30.4875L21.6 29.2L28.4 28.1375H34.9375L39.7375 28.6625L43.0625 29.4625L45.2001 30.525Z" fill="#FFFF00" stroke="black" stroke-width="0.6" stroke-linecap="round" stroke-linejoin="round"/>
<path fill-rule="evenodd" clip-rule="evenodd" d="M32 27.975C35.1125 27.975 38.125 28.2625 40.5375 28.725C43.0125 29.225 44.75 29.85 45.35 30.5375V30.8875C44.625 30.0125 42.2875 29.3875 40.475 29.0125C38.1 28.5625 35.1 28.2625 31.9875 28.2625C28.725 28.2625 25.675 28.5875 23.325 29.0375C21.45 29.4125 18.9375 30.1625 18.625 30.8875V30.525C18.7875 30.025 20.6625 29.275 23.2875 28.7375C25.65 28.275 28.7 27.975 31.9875 27.975H32ZM32 26.8375C34.8625 26.8318 37.7198 27.0828 40.5375 27.5875C43.0125 28.0875 44.75 28.7125 45.35 29.4125V29.75C44.625 28.8875 42.2875 28.25 40.475 27.8875C38.1 27.425 35.1 27.1375 31.9875 27.1375C29.0864 27.1283 26.1907 27.3878 23.3375 27.9125C21.525 28.25 18.9125 29.025 18.625 29.75V29.4C18.8 28.9 20.7 28.1125 23.2875 27.6125C25.6625 27.15 28.7 26.8375 32 26.8375V26.8375ZM31.925 21.0625C36.8375 21.0375 41.125 21.75 43.0875 22.75L43.8 24C42.1 23.075 37.475 22.125 31.9375 22.25C27.425 22.2875 22.6 22.75 20.1875 24.05L21.0375 22.625C23.025 21.5875 27.7 21.0625 31.925 21.0625" fill="#FFFF00"/>
<path d="M31.925 21.0625C36.8375 21.0375 41.125 21.75 43.0875 22.75L43.8 24C42.1 23.075 37.475 22.125 31.9375 22.25C27.425 22.2875 22.6 22.75 20.1875 24.05L21.0375 22.625C23.025 21.5875 27.7 21.0625 31.925 21.0625M32 27.975C35.1125 27.975 38.125 28.2625 40.5375 28.725C43.0125 29.225 44.75 29.85 45.35 30.5375V30.8875C44.625 30.0125 42.2875 29.3875 40.475 29.0125C38.1 28.5625 35.1 28.2625 31.9875 28.2625C28.725 28.2625 25.675 28.5875 23.325 29.0375C21.45 29.4125 18.9375 30.1625 18.625 30.8875V30.525C18.7875 30.025 20.6625 29.275 23.2875 28.7375C25.65 28.275 28.7 27.975 31.9875 27.975H32ZM32 26.8375C34.8625 26.8318 37.7198 27.0828 40.5375 27.5875C43.0125 28.0875 44.75 28.7125 45.35 29.4125V29.75C44.625 28.8875 42.2875 28.25 40.475 27.8875C38.1 27.425 35.1 27.1375 31.9875 27.1375C29.0864 27.1283 26.1907 27.3878 23.3375 27.9125C21.525 28.25 18.9125 29.025 18.625 29.75V29.4C18.8 28.9 20.7 28.1125 23.2875 27.6125C25.6625 27.15 28.7 26.8375 32 26.8375V26.8375Z" stroke="black" stroke-width="0.6" stroke-linecap="round" stroke-linejoin="round"/>
<path fill-rule="evenodd" clip-rule="evenodd" d="M32 22.0875C34.5649 22.0442 37.1287 22.2241 39.6625 22.625C41.6625 23 43.575 23.55 43.85 23.85L44.0625 24.225C43.4 23.8 41.7375 23.3125 39.6125 22.9125C37.4875 22.5125 34.775 22.375 31.9875 22.3875C28.825 22.375 26.3625 22.5375 24.2625 22.9125C22.8148 23.1154 21.4093 23.5501 20.1 24.2L20.3125 23.8125C21.0625 23.4375 22.225 22.975 24.2 22.6125C26.3875 22.2125 28.875 22.1 32 22.0875V22.0875ZM32 20.9625C34.675 20.9375 37.325 21.0875 39.3875 21.4625C40.7237 21.6609 42.0169 22.0835 43.2125 22.7125L43.525 23.2125C43 22.625 41.025 22.0625 39.2625 21.7625C37.2125 21.4 34.675 21.2625 32 21.2375C29.5099 21.2153 27.0222 21.3993 24.5625 21.7875C23.2763 21.9667 22.0272 22.3507 20.8625 22.925L21.1375 22.5125C21.8625 22.1375 23.0375 21.7875 24.5125 21.5C26.9884 21.1067 29.4931 20.9227 32 20.95V20.9625ZM38.55 35.5C36.3834 35.1249 34.1859 34.9575 31.9875 35C23.8 35.1 21.1625 36.6875 20.8375 37.1625L20.2125 36.1625C22.3125 34.6625 26.7625 33.8125 32.0375 33.8875C34.775 33.9375 37.1375 34.125 39.1125 34.5125L38.55 35.5125" fill="#FFFF00"/>
<path d="M38.55 35.5C36.3834 35.1249 34.1859 34.9575 31.9875 35C23.8 35.1 21.1625 36.6875 20.8375 37.1625L20.2125 36.1625C22.3125 34.6625 26.7625 33.8125 32.0375 33.8875C34.775 33.9375 37.1375 34.125 39.1125 34.5125L38.55 35.5125M32 22.0875C34.5649 22.0442 37.1287 22.2241 39.6625 22.625C41.6625 23 43.575 23.55 43.85 23.85L44.0625 24.225C43.4 23.8 41.7375 23.3125 39.6125 22.9125C37.4875 22.5125 34.775 22.375 31.9875 22.3875C28.825 22.375 26.3625 22.5375 24.2625 22.9125C22.8148 23.1154 21.4093 23.5501 20.1 24.2L20.3125 23.8125C21.0625 23.4375 22.225 22.975 24.2 22.6125C26.3875 22.2125 28.875 22.1 32 22.0875V22.0875ZM32 20.9625C34.675 20.9375 37.325 21.0875 39.3875 21.4625C40.7237 21.6609 42.0169 22.0835 43.2125 22.7125L43.525 23.2125C43 22.625 41.025 22.0625 39.2625 21.7625C37.2125 21.4 34.675 21.2625 32 21.2375C29.5099 21.2153 27.0222 21.3993 24.5625 21.7875C23.2763 21.9667 22.0272 22.3507 20.8625 22.925L21.1375 22.5125C21.8625 22.1375 23.0375 21.7875 24.5125 21.5C26.9884 21.1067 29.4931 20.9227 32 20.95V20.9625Z" stroke="black" stroke-width="0.6" stroke-linecap="round" stroke-linejoin="round"/>
<path fill-rule="evenodd" clip-rule="evenodd" d="M31.9501 34.8625C34.2251 34.9 36.45 34.9875 38.6125 35.3875L38.4626 35.6625C36.4626 35.2875 34.3125 35.1625 31.9625 35.1625C28.925 35.1375 25.875 35.425 23.2125 36.1875C22.375 36.425 20.9875 36.9625 20.8375 37.4125L20.6875 37.1625C20.7375 36.8875 21.5626 36.3375 23.1376 35.9125C26.1876 35.0375 29.0376 34.875 31.9501 34.8625ZM32.05 33.7125C34.4513 33.7101 36.848 33.9192 39.2126 34.3375L39.05 34.625C36.7411 34.2015 34.3974 33.9964 32.05 34.0125C29.025 34.0125 25.8126 34.2375 22.8876 35.0875C21.9501 35.3625 20.3126 35.9625 20.2626 36.425L20.1125 36.15C20.1375 35.725 21.5501 35.1625 22.8251 34.8C25.7626 33.9375 28.9875 33.725 32.05 33.7125V33.7125Z" fill="#FFFF00" stroke="black" stroke-width="0.6" stroke-linecap="round" stroke-linejoin="round"/>
<path fill-rule="evenodd" clip-rule="evenodd" d="M43.675 36.3125L42.7 37.85L39.8625 35.3375L32.5375 30.4L24.2625 25.8625L19.975 24.4L20.8875 22.7L21.2 22.5375L23.8625 23.2L32.6625 27.7375L37.7375 30.9375L42 34L43.7375 36L43.675 36.3125Z" fill="#FFFF00" stroke="black" stroke-width="0.6" stroke-linecap="round" stroke-linejoin="round"/>
<path fill-rule="evenodd" clip-rule="evenodd" d="M19.825 24.4375C20.575 23.9375 26.1 26.3875 31.9 29.8875C37.6625 33.3875 43.1875 37.3375 42.6875 38.075L42.525 38.3375L42.45 38.4C42.4625 38.3875 42.55 38.275 42.45 38.0125C42.2 37.2 38.275 34.075 31.7875 30.15C25.45 26.3875 20.175 24.1125 19.6625 24.7625L19.825 24.4375V24.4375ZM43.875 36.3C44.35 35.35 39.225 31.4875 32.8625 27.725C26.3625 24.0375 21.6625 21.8625 20.8 22.5125L20.625 22.875C20.625 22.8875 20.625 22.85 20.675 22.8125C20.825 22.6875 21.0875 22.6875 21.2 22.6875C22.675 22.7125 26.8875 24.65 32.8 28.0375C35.4 29.5375 43.75 34.9125 43.7125 36.4125C43.7125 36.5375 43.725 36.5625 43.675 36.6375L43.8875 36.3125L43.875 36.3Z" fill="#FFFF00" stroke="black" stroke-width="0.6" stroke-linecap="round" stroke-linejoin="round"/>
<path d="M24.0801 31.4709C24.0821 32.5059 24.2893 33.5303 24.6898 34.4847C25.0903 35.439 25.6762 36.3045 26.4134 37.0309C27.1417 37.7704 28.0091 38.3585 28.9656 38.7612C29.9221 39.164 30.9489 39.3735 31.9868 39.3776C34.0872 39.3775 36.1016 38.5429 37.5868 37.0576C38.3214 36.3272 38.9045 35.4588 39.3027 34.5023C39.7008 33.5459 39.9061 32.5203 39.9068 31.4843V20.9242L24.0801 20.8976V31.4709V31.4709Z" fill="white" stroke="black" stroke-width="0.746669"/>
<path d="M24.3734 31.4843C24.3762 32.4771 24.5756 33.4596 24.9601 34.3749C25.3445 35.2903 25.9065 36.1205 26.6134 36.8176C28.033 38.2446 29.9606 39.0502 31.9734 39.0576C33.9827 39.0587 35.9104 38.2627 37.3335 36.8443C38.038 36.1461 38.5975 35.3154 38.9796 34.4001C39.3618 33.4847 39.5591 32.5028 39.5601 31.5109V21.2442H24.4001V31.4843H24.3734ZM36.5335 24.3242V30.8443L36.5201 31.5243C36.5246 32.1199 36.4088 32.7104 36.1797 33.2602C35.9506 33.8101 35.6129 34.308 35.1868 34.7243C34.3389 35.5751 33.188 36.0547 31.9868 36.0576C30.7334 36.0576 29.6268 35.5243 28.8001 34.6976C27.9492 33.8497 27.4697 32.6988 27.4668 31.4976V24.2976L36.5335 24.3242Z" fill="#FF0000" stroke="black" stroke-width="0.533335"/>
<path d="M25.36 23.9242C25.3733 23.1909 25.8933 23.0175 25.8933 23.0175C25.9067 23.0175 26.4667 23.2042 26.4667 23.9375H25.36" fill="#FFFF00"/>
<path d="M24.9067 23.0309L24.8134 23.8709H25.3734C25.3734 23.1775 25.9067 23.0709 25.9067 23.0709C25.92 23.0709 26.44 23.2175 26.4534 23.8709H27.0134L26.9067 23.0175H24.9067V23.0309ZM24.7734 23.8842H27.04C27.08 23.8842 27.12 23.9242 27.12 23.9776C27.12 24.0442 27.08 24.0842 27.04 24.0842H24.7734C24.7334 24.0842 24.6934 24.0442 24.6934 23.9776C24.6934 23.9242 24.7334 23.8842 24.7867 23.8842H24.7734Z" fill="#FFFF00" stroke="black" stroke-width="0.533335"/>
<path d="M25.6 23.8709C25.6 23.4309 25.9067 23.3109 25.9067 23.3109C25.9067 23.3109 26.2134 23.4442 26.2134 23.8709H25.6ZM24.8267 22.6709H27C27.04 22.6709 27.08 22.7242 27.08 22.7776C27.08 22.8176 27.04 22.8576 27 22.8576H24.8267C24.7867 22.8576 24.7467 22.8176 24.7467 22.7642C24.7467 22.7242 24.7867 22.6842 24.8267 22.6842V22.6709ZM24.88 22.8709H26.9334C26.9734 22.8709 27.0134 22.9109 27.0134 22.9642C27.0134 23.0176 26.9734 23.0576 26.9334 23.0576H24.8667C24.8134 23.0576 24.7867 23.0176 24.7867 22.9642C24.7867 22.9109 24.8134 22.8709 24.8667 22.8709H24.88ZM25.5467 21.4575H25.7067V21.5642H25.8267V21.4575H26V21.5775H26.12V21.4442H26.28V21.7109C26.28 21.7642 26.2534 21.7909 26.2134 21.7909H25.6267C25.5867 21.7909 25.5467 21.7642 25.5467 21.7242V21.4575ZM26.16 21.8175L26.2 22.6709H25.6267L25.6667 21.8042H26.16" fill="#FFFF00"/>
<path d="M26.16 21.8175L26.2 22.6709H25.6267L25.6667 21.8042H26.16M25.6 23.8709C25.6 23.4309 25.9067 23.3109 25.9067 23.3109C25.9067 23.3109 26.2134 23.4442 26.2134 23.8709H25.6ZM24.8267 22.6709H27C27.04 22.6709 27.08 22.7242 27.08 22.7776C27.08 22.8176 27.04 22.8576 27 22.8576H24.8267C24.7867 22.8576 24.7467 22.8176 24.7467 22.7642C24.7467 22.7242 24.7867 22.6842 24.8267 22.6842V22.6709ZM24.88 22.8709H26.9334C26.9734 22.8709 27.0134 22.9109 27.0134 22.9642C27.0134 23.0176 26.9734 23.0576 26.9334 23.0576H24.8667C24.8134 23.0576 24.7867 23.0176 24.7867 22.9642C24.7867 22.9109 24.8134 22.8709 24.8667 22.8709H24.88ZM25.5467 21.4575H25.7067V21.5642H25.8267V21.4575H26V21.5775H26.12V21.4442H26.28V21.7109C26.28 21.7642 26.2534 21.7909 26.2134 21.7909H25.6267C25.5867 21.7909 25.5467 21.7642 25.5467 21.7242V21.4575Z" stroke="black" stroke-width="0.533335"/>
<path d="M25.4667 22.2176V22.6709H24.9333V22.2176H25.4667Z" fill="#FFFF00" stroke="black" stroke-width="0.533335"/>
<path d="M24.8401 21.8709H25.0001V22.0042H25.1201V21.8709H25.2801V22.0042H25.4001V21.8709H25.5601V22.1375C25.5601 22.1909 25.5334 22.2176 25.4934 22.2176H24.9201C24.8989 22.2176 24.8785 22.2091 24.8635 22.1941C24.8485 22.1791 24.8401 22.1588 24.8401 22.1375V21.8709V21.8709Z" fill="#FFFF00" stroke="black" stroke-width="0.533335"/>
<path d="M25.8534 22.0842C25.8534 22.0042 25.9734 22.0042 25.9734 22.0842V22.2976H25.8534V22.0842Z" fill="black"/>
<path d="M25.1467 22.3776C25.1467 22.2976 25.2534 22.2976 25.2534 22.3776V22.5376H25.1467V22.3776Z" fill="black"/>
<path d="M31.0135 30.3242C31.0111 30.6057 31.1159 30.8774 31.3068 31.0842C31.3958 31.1838 31.5047 31.2637 31.6264 31.3188C31.7481 31.3739 31.8799 31.403 32.0135 31.4042C32.2935 31.4042 32.5468 31.2709 32.7201 31.0842C32.911 30.8774 33.0159 30.6057 33.0135 30.3242V28.8842H31.0135V30.3242Z" fill="#003399"/>
<path d="M31.4802 29.6309C31.5906 29.6309 31.6802 29.5414 31.6802 29.4309C31.6802 29.3205 31.5906 29.2309 31.4802 29.2309C31.3697 29.2309 31.2802 29.3205 31.2802 29.4309C31.2802 29.5414 31.3697 29.6309 31.4802 29.6309Z" fill="white"/>
<path d="M32.5868 29.6309C32.6973 29.6309 32.7868 29.5414 32.7868 29.4309C32.7868 29.3205 32.6973 29.2309 32.5868 29.2309C32.4764 29.2309 32.3868 29.3205 32.3868 29.4309C32.3868 29.5414 32.4764 29.6309 32.5868 29.6309Z" fill="white"/>
<path d="M32.0268 30.1643C32.1372 30.1643 32.2268 30.0747 32.2268 29.9643C32.2268 29.8538 32.1372 29.7643 32.0268 29.7643C31.9163 29.7643 31.8268 29.8538 31.8268 29.9643C31.8268 30.0747 31.9163 30.1643 32.0268 30.1643Z" fill="white"/>
<path d="M31.4802 30.7243C31.5906 30.7243 31.6802 30.6347 31.6802 30.5243C31.6802 30.4138 31.5906 30.3242 31.4802 30.3242C31.3697 30.3242 31.2802 30.4138 31.2802 30.5243C31.2802 30.6347 31.3697 30.7243 31.4802 30.7243Z" fill="white"/>
<path d="M32.5868 30.7243C32.6973 30.7243 32.7868 30.6347 32.7868 30.5243C32.7868 30.4138 32.6973 30.3242 32.5868 30.3242C32.4764 30.3242 32.3868 30.4138 32.3868 30.5243C32.3868 30.6347 32.4764 30.7243 32.5868 30.7243Z" fill="white"/>
</svg>
